<svg display="none" xmlns="http://www.w3.org/2000/svg">

  <symbol viewBox="0 0 156 156" id="youtube-icon">
    <path
      d="M48.53 18.68C66.91 15.66 89.08 15.66 107.46 18.68C124.15 21.41 137.09 34.98 139.57 49.6C142.56 67.29 142.56 88.7 139.57 106.39C137.09 121.01 124.15 134.58 107.46 137.31C89.08 140.33 66.91 140.33 48.53 137.31C31.84 134.58 18.9 121.01 16.42 106.39C13.43 88.7 13.43 67.29 16.42 49.6C18.9 34.98 31.84 21.41 48.53 18.68ZM109.45 2.42C89.75 -0.81 66.24 -0.81 46.54 2.42C25.17 5.92 6.38 23.58 2.51 46.44C-0.84 66.22 -0.84 89.77 2.51 109.55C6.38 132.41 25.17 150.07 46.54 153.57C66.24 156.8 89.75 156.8 109.45 153.57C130.82 150.07 149.61 132.41 153.48 109.55C156.83 89.77 156.83 66.22 153.48 46.44C149.61 23.58 130.82 5.92 109.45 2.42ZM67.75 38.32C65.57 36.64 62.77 36.49 60.47 37.91C58.16 39.34 56.72 42.12 56.72 45.15L56.72 110.84C56.72 113.86 58.16 116.65 60.47 118.08C62.77 119.51 65.57 119.35 67.75 117.67L110.29 84.83C112.27 83.3 113.45 80.74 113.45 78C113.45 75.25 112.27 72.69 110.29 71.16L67.75 38.32ZM93.58 78L70.9 95.5L70.9 60.5L93.58 78Z"
      fill-opacity="1.000000" fill-rule="evenodd" />
  </symbol>

  <symbol viewBox="0 0 156 156" id="linkedin-icon">
    <path
      d="M31.2 0C13.96 0 0 13.96 0 31.19L0 124.8C0 142.03 13.96 156 31.2 156L124.8 156C142.03 156 156 142.03 156 124.8L156 31.19C156 13.96 142.03 0 124.8 0L31.2 0ZM15.6 31.19C15.6 22.58 22.58 15.59 31.2 15.59L124.8 15.59C133.41 15.59 140.39 22.58 140.39 31.19L140.39 124.8C140.39 133.41 133.41 140.39 124.8 140.39L31.2 140.39C22.58 140.39 15.6 133.41 15.6 124.8L15.6 31.19ZM54.6 70.19C54.6 65.89 51.1 62.4 46.79 62.4C42.49 62.4 39 65.89 39 70.19L39 117C39 121.3 42.49 124.8 46.79 124.8C51.1 124.8 54.6 121.3 54.6 117L54.6 70.19ZM58.5 42.9C58.5 49.36 53.26 54.59 46.79 54.59C40.33 54.59 35.1 49.36 35.1 42.9C35.1 36.43 40.33 31.19 46.79 31.19C53.26 31.19 58.5 36.43 58.5 42.9ZM78 62.4C80.64 62.4 82.98 63.72 84.39 65.73C88.39 63.57 92.84 62.4 97.5 62.4C114.34 62.4 124.8 77.42 124.8 90.25L124.8 90.31L124.8 90.37L124.8 90.43L124.8 90.49L124.8 90.55L124.8 90.61L124.8 90.67L124.8 90.73L124.8 90.79L124.8 90.85L124.8 90.91L124.8 90.97L124.8 91.03L124.8 91.09L124.8 91.15L124.8 91.21L124.8 91.27L124.8 91.33L124.8 91.4L124.8 91.46L124.8 91.52L124.8 91.58L124.8 91.64L124.8 91.7L124.8 91.77L124.8 91.83L124.8 91.89L124.8 91.95L124.8 92.02L124.8 92.08L124.8 92.14L124.8 92.21L124.8 92.27L124.8 92.33L124.8 92.4L124.8 92.46L124.8 92.52L124.8 92.58L124.8 92.65L124.8 92.71L124.8 92.78L124.8 92.84L124.8 92.91L124.8 92.97L124.8 93.04L124.8 93.1L124.8 93.16L124.8 93.23L124.8 93.29L124.8 93.36L124.8 93.42L124.8 93.49L124.8 93.56L124.8 93.62L124.8 93.69L124.8 93.75L124.8 93.82L124.8 93.88L124.8 93.95L124.8 94.01L124.8 94.08L124.8 94.15L124.8 94.21L124.8 94.28L124.8 94.35L124.8 94.41L124.8 94.48L124.8 94.55L124.8 94.61L124.8 94.68L124.8 94.75L124.8 94.81L124.8 94.88L124.8 94.95L124.8 95.02L124.8 95.08L124.8 95.15L124.8 95.22L124.8 95.29L124.8 95.35L124.8 95.42L124.8 95.49L124.8 95.56L124.8 95.62L124.8 95.69L124.8 95.76L124.8 95.83L124.8 95.9L124.8 95.97L124.8 96.03L124.8 96.1L124.8 96.17L124.8 96.24L124.8 96.31L124.8 96.38L124.8 96.44L124.8 96.51L124.8 96.58L124.8 96.65L124.8 96.72L124.8 96.79L124.8 96.86L124.8 96.92L124.8 97L124.8 97.06L124.8 97.13L124.8 97.2L124.8 97.27L124.8 97.34L124.8 97.41L124.8 97.48L124.8 97.55L124.8 97.62L124.8 97.69L124.8 97.76L124.8 97.83L124.8 97.9L124.8 97.96L124.8 98.03L124.8 98.1L124.8 98.17L124.8 98.24L124.8 98.31L124.8 98.38L124.8 98.45L124.8 98.52L124.8 98.59L124.8 98.66L124.8 98.73L124.8 98.8L124.8 98.87L124.8 98.94L124.8 99.01L124.8 99.08L124.8 99.15L124.8 99.22L124.8 99.29L124.8 99.36L124.8 99.43L124.8 99.5L124.8 99.57L124.8 99.64L124.8 99.71L124.8 99.78L124.8 99.85L124.8 99.92L124.8 99.99L124.8 100.06L124.8 100.13L124.8 100.2L124.8 100.27L124.8 100.34L124.8 100.41L124.8 100.48L124.8 100.55L124.8 100.62L124.8 100.69L124.8 100.76L124.8 100.83L124.8 100.9L124.8 100.97L124.8 101.04L124.8 101.11L124.8 101.18L124.8 101.25L124.8 101.32L124.8 101.39L124.8 101.46L124.8 101.53L124.8 101.6L124.8 101.67L124.8 101.74L124.8 101.81L124.8 101.87L124.8 101.94L124.8 102.01L124.8 102.08L124.8 102.15L124.8 102.22L124.8 102.29L124.8 102.36L124.8 102.43L124.8 102.5L124.8 102.57L124.8 102.64L124.8 102.71L124.8 102.78L124.8 102.85L124.8 102.91L124.8 102.98L124.8 103.05L124.8 103.12L124.8 103.19L124.8 103.26L124.8 103.33L124.8 103.4L124.8 103.46L124.8 103.53L124.8 103.6L124.8 103.67L124.8 103.74L124.8 103.81L124.8 103.88L124.8 103.94L124.8 104.01L124.8 104.08L124.8 104.15L124.8 104.22L124.8 104.28L124.8 104.35L124.8 104.42L124.8 104.49L124.8 104.56L124.8 104.62L124.8 104.69L124.8 104.76L124.8 104.83L124.8 104.89L124.8 104.96L124.8 105.03L124.8 105.1L124.8 105.16L124.8 105.23L124.8 105.29L124.8 105.36L124.8 105.43L124.8 105.49L124.8 105.56L124.8 105.63L124.8 105.69L124.8 105.76L124.8 105.83L124.8 105.89L124.8 105.96L124.8 106.02L124.8 106.09L124.8 106.16L124.8 106.22L124.8 106.29L124.8 106.35L124.8 106.42L124.8 106.48L124.8 106.55L124.8 106.61L124.8 106.68L124.8 106.74L124.8 106.81L124.8 106.87L124.8 106.94L124.8 107L124.8 107.07L124.8 107.13L124.8 107.19L124.8 107.26L124.8 107.32L124.8 107.38L124.8 107.45L124.8 107.51L124.8 107.58L124.8 107.64L124.8 107.7L124.8 107.77L124.8 107.83L124.8 107.89L124.8 107.95L124.8 108.02L124.8 108.08L124.8 108.14L124.8 108.2L124.8 108.27L124.8 108.33L124.8 108.39L124.8 108.45L124.8 108.51L124.8 108.57L124.8 108.63L124.8 108.69L124.8 108.76L124.8 108.82L124.8 108.88L124.8 108.94L124.8 109L124.8 109.06L124.8 109.12L124.8 109.18L124.8 109.24L124.8 109.3L124.8 109.36L124.8 109.42L124.8 109.48L124.8 109.53L124.8 109.59L124.8 109.65L124.8 109.71L124.8 109.77L124.8 109.83L124.8 109.89L124.8 109.94L124.8 110L124.8 110.06L124.8 110.12L124.8 110.18L124.8 110.23L124.8 110.29L124.8 110.35L124.8 110.4L124.8 110.46L124.8 110.52L124.8 110.57L124.8 110.63L124.8 110.68L124.8 110.74L124.8 110.79L124.8 110.85L124.8 110.91L124.8 110.96L124.8 111.02L124.8 111.07L124.8 111.12L124.8 111.18L124.8 111.23L124.8 111.29L124.8 111.34L124.8 111.39L124.8 111.45L124.8 111.5L124.8 111.55L124.8 111.6L124.8 111.66L124.8 111.71L124.8 111.76L124.8 111.81L124.8 111.87L124.8 111.92L124.8 111.97L124.8 112.02L124.8 112.07L124.8 112.12L124.8 112.17L124.8 112.22L124.8 112.27L124.8 112.32L124.8 112.37L124.8 112.42L124.8 112.47L124.8 112.52L124.8 112.57L124.8 112.62L124.8 112.67L124.8 112.72L124.8 112.77L124.8 112.81L124.8 112.86L124.8 112.91L124.8 112.95L124.8 113L124.8 113.05L124.8 113.1L124.8 113.14L124.8 113.19L124.8 113.23L124.8 113.28L124.8 113.33L124.8 113.37L124.8 113.42L124.8 113.46L124.8 113.51L124.8 113.55L124.8 113.59L124.8 113.64L124.8 113.68L124.8 113.72L124.8 113.77L124.8 113.81L124.8 113.85L124.8 113.9L124.8 113.94L124.8 113.98L124.8 114.02L124.8 114.06L124.8 114.1L124.8 114.15L124.8 114.19L124.8 114.23L124.8 114.27L124.8 114.31L124.8 114.35L124.8 114.39L124.8 114.43L124.8 114.46L124.8 114.5L124.8 114.54L124.8 114.58L124.8 114.62L124.8 114.66L124.8 114.69L124.8 114.73L124.8 114.77L124.8 114.8L124.8 114.84L124.8 114.88L124.8 114.91L124.8 114.95L124.8 114.98L124.8 115.02L124.8 115.05L124.8 115.09L124.8 115.12L124.8 115.16L124.8 115.19L124.8 115.22L124.8 115.26L124.8 115.29L124.8 115.32L124.8 115.35L124.8 115.39L124.8 115.42L124.8 115.45L124.8 115.48L124.8 115.51L124.8 115.54L124.8 115.57L124.8 115.6L124.8 115.63L124.8 115.66L124.8 115.69L124.8 115.72L124.8 115.75L124.8 115.78L124.8 115.81L124.8 115.83L124.8 115.86L124.8 115.89L124.8 115.91L124.8 115.94L124.8 115.97L124.8 115.99L124.8 116.02L124.8 116.04L124.8 116.07L124.8 116.09L124.8 116.12L124.8 116.14L124.8 116.17L124.8 116.19L124.8 116.21L124.8 116.24L124.8 116.26L124.8 116.28L124.8 116.3L124.8 116.32L124.8 116.35L124.8 116.36L124.8 116.39L124.8 116.41L124.8 116.43L124.8 116.44L124.8 116.46L124.8 116.48L124.8 116.5L124.8 116.52L124.8 116.54L124.8 116.56L124.8 116.57L124.8 116.59L124.8 116.61L124.8 116.62L124.8 116.64L124.8 116.66L124.8 116.67L124.8 116.68L124.8 116.7L124.8 116.71L124.8 116.73L124.8 116.74L124.8 116.76L124.8 116.77L124.8 116.78L124.8 116.79L124.8 116.81L124.8 116.82L124.8 116.83L124.8 116.84L124.8 116.85L124.8 116.86L124.8 116.87L124.8 116.88L124.8 116.89L124.8 116.9L124.8 116.91L124.8 116.91L124.8 116.93L124.8 116.94L124.8 116.95L124.8 116.96L124.8 116.97L124.8 116.98L124.8 116.99C124.8 121.3 121.3 124.8 117 124.8C112.69 124.8 109.2 121.3 109.2 117L109.2 116.99L109.2 116.98L109.2 116.97L109.2 116.96L109.2 116.95L109.2 116.93L109.2 116.92L109.2 116.91L109.2 116.9L109.2 116.89L109.2 116.88L109.2 116.87L109.2 116.86L109.2 116.85L109.2 116.84L109.2 116.83L109.2 116.82L109.2 116.81L109.2 116.79L109.2 116.78L109.2 116.77L109.2 116.76L109.2 116.74L109.2 116.73L109.2 116.71L109.2 116.7L109.2 116.68L109.2 116.67L109.2 116.66L109.2 116.64L109.2 116.62L109.2 116.61L109.2 116.59L109.2 116.57L109.2 116.56L109.2 116.54L109.2 116.52L109.2 116.5L109.2 116.48L109.2 116.46L109.2 116.44L109.2 116.43L109.2 116.41L109.2 116.39L109.2 116.36L109.2 116.35L109.2 116.32L109.2 116.3L109.2 116.28L109.2 116.26L109.2 116.24L109.2 116.21L109.2 116.19L109.2 116.17L109.2 116.14L109.2 116.12L109.2 116.09L109.2 116.07L109.2 116.04L109.2 116.02L109.2 115.99L109.2 115.97L109.2 115.94L109.2 115.91L109.2 115.89L109.2 115.86L109.2 115.83L109.2 115.81L109.2 115.78L109.2 115.75L109.2 115.72L109.2 115.69L109.2 115.66L109.2 115.63L109.2 115.6L109.2 115.57L109.2 115.54L109.2 115.51L109.2 115.48L109.2 115.45L109.2 115.42L109.2 115.39L109.2 115.35L109.2 115.32L109.2 115.29L109.2 115.26L109.2 115.22L109.2 115.19L109.2 115.16L109.2 115.12L109.2 115.09L109.2 115.05L109.2 115.02L109.2 114.98L109.2 114.95L109.2 114.91L109.2 114.88L109.2 114.84L109.2 114.8L109.2 114.77L109.2 114.73L109.2 114.69L109.2 114.66L109.2 114.62L109.2 114.58L109.2 114.54L109.2 114.5L109.2 114.46L109.2 114.43L109.2 114.39L109.2 114.35L109.2 114.31L109.2 114.27L109.2 114.23L109.2 114.19L109.2 114.15L109.2 114.1L109.2 114.06L109.2 114.02L109.2 113.98L109.2 113.94L109.2 113.9L109.2 113.85L109.2 113.81L109.2 113.77L109.2 113.72L109.2 113.68L109.2 113.64L109.2 113.59L109.2 113.55L109.2 113.51L109.2 113.46L109.2 113.42L109.2 113.37L109.2 113.33L109.2 113.28L109.2 113.23L109.2 113.19L109.2 113.14L109.2 113.1L109.2 113.05L109.2 113L109.2 112.95L109.2 112.91L109.2 112.86L109.2 112.81L109.2 112.77L109.2 112.72L109.2 112.67L109.2 112.62L109.2 112.57L109.2 112.52L109.2 112.47L109.2 112.42L109.2 112.37L109.2 112.32L109.2 112.27L109.2 112.22L109.2 112.17L109.2 112.12L109.2 112.07L109.2 112.02L109.2 111.97L109.2 111.92L109.2 111.87L109.2 111.81L109.2 111.76L109.2 111.71L109.2 111.66L109.2 111.6L109.2 111.55L109.2 111.5L109.2 111.45L109.2 111.39L109.2 111.34L109.2 111.29L109.2 111.23L109.2 111.18L109.2 111.12L109.2 111.07L109.2 111.02L109.2 110.96L109.2 110.91L109.2 110.85L109.2 110.79L109.2 110.74L109.2 110.68L109.2 110.63L109.2 110.57L109.2 110.52L109.2 110.46L109.2 110.4L109.2 110.35L109.2 110.29L109.2 110.23L109.2 110.18L109.2 110.12L109.2 110.06L109.2 110L109.2 109.94L109.2 109.89L109.2 109.83L109.2 109.77L109.2 109.71L109.2 109.65L109.2 109.59L109.2 109.53L109.2 109.48L109.2 109.42L109.2 109.36L109.2 109.3L109.2 109.24L109.2 109.18L109.2 109.12L109.2 109.06L109.2 109L109.2 108.94L109.2 108.88L109.2 108.82L109.2 108.76L109.2 108.69L109.2 108.63L109.2 108.57L109.2 108.51L109.2 108.45L109.2 108.39L109.2 108.33L109.2 108.27L109.2 108.2L109.2 108.14L109.2 108.08L109.2 108.02L109.2 107.95L109.2 107.89L109.2 107.83L109.2 107.77L109.2 107.7L109.2 107.64L109.2 107.58L109.2 107.51L109.2 107.45L109.2 107.38L109.2 107.32L109.2 107.26L109.2 107.19L109.2 107.13L109.2 107.07L109.2 107L109.2 106.94L109.2 106.87L109.2 106.81L109.2 106.74L109.2 106.68L109.2 106.61L109.2 106.55L109.2 106.48L109.2 106.42L109.2 106.35L109.2 106.29L109.2 106.22L109.2 106.16L109.2 106.09L109.2 106.02L109.2 105.96L109.2 105.89L109.2 105.83L109.2 105.76L109.2 105.69L109.2 105.63L109.2 105.56L109.2 105.49L109.2 105.43L109.2 105.36L109.2 105.29L109.2 105.23L109.2 105.16L109.2 105.1L109.2 105.03L109.2 104.96L109.2 104.89L109.2 104.83L109.2 104.76L109.2 104.69L109.2 104.62L109.2 104.56L109.2 104.49L109.2 104.42L109.2 104.35L109.2 104.28L109.2 104.22L109.2 104.15L109.2 104.08L109.2 104.01L109.2 103.94L109.2 103.88L109.2 103.81L109.2 103.74L109.2 103.67L109.2 103.6L109.2 103.53L109.2 103.46L109.2 103.4L109.2 103.33L109.2 103.26L109.2 103.19L109.2 103.12L109.2 103.05L109.2 102.98L109.2 102.91L109.2 102.85L109.2 102.78L109.2 102.71L109.2 102.64L109.2 102.57L109.2 102.5L109.2 102.43L109.2 102.36L109.2 102.29L109.2 102.22L109.2 102.15L109.2 102.08L109.2 102.01L109.2 101.94L109.2 101.87L109.2 101.81L109.2 101.74L109.2 101.67L109.2 101.6L109.2 101.53L109.2 101.46L109.2 101.39L109.2 101.32L109.2 101.25L109.2 101.18L109.2 101.11L109.2 101.04L109.2 100.97L109.2 100.9L109.2 100.83L109.2 100.76L109.2 100.69L109.2 100.62L109.2 100.55L109.2 100.48L109.2 100.41L109.2 100.34L109.2 100.27L109.2 100.2L109.2 100.13L109.2 100.06L109.2 99.99L109.2 99.92L109.2 99.85L109.2 99.78L109.2 99.71L109.2 99.64L109.2 99.57L109.2 99.5L109.2 99.43L109.2 99.36L109.2 99.29L109.2 99.22L109.2 99.15L109.2 99.08L109.2 99.01L109.2 98.94L109.2 98.87L109.2 98.8L109.2 98.73L109.2 98.66L109.2 98.59L109.2 98.52L109.2 98.45L109.2 98.38L109.2 98.31L109.2 98.24L109.2 98.17L109.2 98.1L109.2 98.03L109.2 97.96L109.2 97.9L109.2 97.83L109.2 97.76L109.2 97.69L109.2 97.62L109.2 97.55L109.2 97.48L109.2 97.41L109.2 97.34L109.2 97.27L109.2 97.2L109.2 97.13L109.2 97.06L109.2 97L109.2 96.92L109.2 96.86L109.2 96.79L109.2 96.72L109.2 96.65L109.2 96.58L109.2 96.51L109.2 96.44L109.2 96.38L109.2 96.31L109.2 96.24L109.2 96.17L109.2 96.1L109.2 96.03L109.2 95.97L109.2 95.9L109.2 95.83L109.2 95.76L109.2 95.69L109.2 95.62L109.2 95.56L109.2 95.49L109.2 95.42L109.2 95.35L109.2 95.29L109.2 95.22L109.2 95.15L109.2 95.08L109.2 95.02L109.2 94.95L109.2 94.88L109.2 94.81L109.2 94.75L109.2 94.68L109.2 94.61L109.2 94.55L109.2 94.48L109.2 94.41L109.2 94.35L109.2 94.28L109.2 94.21L109.2 94.15L109.2 94.08L109.2 94.01L109.2 93.95L109.2 93.88L109.2 93.82L109.2 93.75L109.2 93.69L109.2 93.62L109.2 93.56L109.2 93.49L109.2 93.42L109.2 93.36L109.2 93.29L109.2 93.23L109.2 93.16L109.2 93.1L109.2 93.04L109.2 92.97L109.2 92.91L109.2 92.84L109.2 92.78L109.2 92.71L109.2 92.65L109.2 92.58L109.2 92.52L109.2 92.46L109.2 92.4L109.2 92.33L109.2 92.27L109.2 92.21L109.2 92.14L109.2 92.08L109.2 92.02L109.2 91.95L109.2 91.89L109.2 91.83L109.2 91.77L109.2 91.7L109.2 91.64L109.2 91.58L109.2 91.52L109.2 91.46L109.2 91.4L109.2 91.33L109.2 91.27L109.2 91.21L109.2 91.15L109.2 91.09L109.2 91.03L109.2 90.97L109.2 90.91L109.2 90.85L109.2 90.79L109.2 90.73L109.2 90.67L109.2 90.61L109.2 90.55L109.2 90.49L109.2 90.43L109.2 90.37L109.2 90.31L109.2 90.25C109.2 84.26 104.05 78 97.5 78C93.41 78 88.89 80.22 85.79 85.51L85.79 85.53L85.79 85.61L85.79 85.69L85.79 85.77L85.79 85.85L85.79 85.93L85.79 86.01L85.79 86.09L85.79 86.17L85.79 86.26L85.79 86.34L85.79 86.42L85.79 86.5L85.79 86.58L85.79 86.66L85.79 86.75L85.79 86.83L85.79 86.91L85.79 86.99L85.79 87.08L85.79 87.16L85.79 87.24L85.79 87.33L85.79 87.41L85.79 87.49L85.79 87.58L85.79 87.66L85.79 87.74L85.79 87.83L85.79 87.91L85.79 87.99L85.79 88.08L85.79 88.16L85.79 88.25L85.79 88.33L85.79 88.41L85.79 88.5L85.79 88.58L85.79 88.67L85.79 88.75L85.79 88.83L85.79 88.92L85.79 89L85.79 89.09L85.79 89.17L85.79 89.26L85.79 89.34L85.79 89.43L85.79 89.52L85.79 89.6L85.79 89.69L85.79 89.77L85.79 89.86L85.79 89.94L85.79 90.03L85.79 90.12L85.79 90.2L85.79 90.29L85.79 90.37L85.79 90.46L85.79 90.55L85.79 90.63L85.79 90.72L85.79 90.81L85.79 90.89L85.79 90.98L85.79 91.07L85.79 91.15L85.79 91.24L85.79 91.33L85.79 91.41L85.79 91.5L85.79 91.58L85.79 91.67L85.79 91.76L85.79 91.85L85.79 91.93L85.79 92.02L85.79 92.11L85.79 92.2L85.79 92.28L85.79 92.37L85.79 92.46L85.79 92.54L85.79 92.63L85.79 92.72L85.79 92.81L85.79 92.9L85.79 92.98L85.79 93.07L85.79 93.16L85.79 93.25L85.79 93.33L85.79 93.42L85.79 93.51L85.79 93.59L85.79 93.68L85.79 93.77L85.79 93.86L85.79 93.95L85.79 94.03L85.79 94.12L85.79 94.21L85.79 94.3L85.79 94.39L85.79 94.47L85.79 94.56L85.79 94.65L85.79 94.74L85.79 94.83L85.79 94.91L85.79 95L85.79 95.09L85.79 95.17L85.79 95.26L85.79 95.35L85.79 95.44L85.79 95.53L85.79 95.61L85.79 95.7L85.79 95.79L85.79 95.88L85.79 95.97L85.79 96.05L85.79 96.14L85.79 96.23L85.79 96.32L85.79 96.4L85.79 96.49L85.79 96.58L85.79 96.67L85.79 96.75L85.79 96.84L85.79 96.93L85.79 97.02L85.79 97.1L85.79 97.19L85.79 97.28L85.79 97.37L85.79 97.45L85.79 97.54L85.79 97.63L85.79 97.72L85.79 97.8L85.79 97.89L85.79 97.98L85.79 98.07L85.79 98.15L85.79 98.24L85.79 98.33L85.79 98.41L85.79 98.5L85.79 98.58L85.79 98.67L85.79 98.76L85.79 98.85L85.79 98.93L85.79 99.02L85.79 99.1L85.79 99.19L85.79 99.28L85.79 99.36L85.79 99.45L85.79 99.54L85.79 99.62L85.79 99.71L85.79 99.79L85.79 99.88L85.79 99.97L85.79 100.05L85.79 100.14L85.79 100.22L85.79 100.31L85.79 100.39L85.79 100.48L85.79 100.57L85.79 100.65L85.79 100.74L85.79 100.82L85.79 100.91L85.79 100.99L85.79 101.08L85.79 101.16L85.79 101.24L85.79 101.33L85.79 101.41L85.79 101.5L85.79 101.58L85.79 101.67L85.79 101.75L85.79 101.83L85.79 101.92L85.79 102L85.79 102.09L85.79 102.17L85.79 102.25L85.79 102.34L85.79 102.42L85.79 102.5L85.79 102.59L85.79 102.67L85.79 102.75L85.79 102.83L85.79 102.92L85.79 103L85.79 103.08L85.79 103.16L85.79 103.25L85.79 103.33L85.79 103.41L85.79 103.49L85.79 103.57L85.79 103.65L85.79 103.73L85.79 103.82L85.79 103.9L85.79 103.98L85.79 104.06L85.79 104.14L85.79 104.22L85.79 104.3L85.79 104.38L85.79 104.46L85.79 104.54L85.79 104.62L85.79 104.7L85.79 104.78L85.79 104.86L85.79 104.94L85.79 105.02L85.79 105.1L85.79 105.18L85.79 105.26L85.79 105.33L85.79 105.41L85.79 105.49L85.79 105.57L85.79 105.65L85.79 105.72L85.79 105.8L85.79 105.88L85.79 105.96L85.79 106.03L85.79 106.11L85.79 106.19L85.79 106.27L85.79 106.34L85.79 106.42L85.79 106.49L85.79 106.57L85.79 106.65L85.79 106.72L85.79 106.8L85.79 106.87L85.79 106.95L85.79 107.02L85.79 107.1L85.79 107.17L85.79 107.25L85.79 107.32L85.79 107.39L85.79 107.47L85.79 107.54L85.79 107.61L85.79 107.69L85.79 107.76L85.79 107.84L85.79 107.91L85.79 107.98L85.79 108.05L85.79 108.12L85.79 108.2L85.79 108.27L85.79 108.34L85.79 108.41L85.79 108.48L85.79 108.55L85.79 108.62L85.79 108.69L85.79 108.77L85.79 108.84L85.79 108.9L85.79 108.97L85.79 109.04L85.79 109.11L85.79 109.18L85.79 109.25L85.79 109.32L85.79 109.39L85.79 109.46L85.79 109.52L85.79 109.59L85.79 109.66L85.79 109.73L85.79 109.79L85.79 109.86L85.79 109.93L85.79 109.99L85.79 110.06L85.79 110.13L85.79 110.19L85.79 110.26L85.79 110.32L85.79 110.39L85.79 110.45L85.79 110.52L85.79 110.58L85.79 110.64L85.79 110.71L85.79 110.77L85.79 110.84L85.79 110.9L85.79 110.96L85.79 111.02L85.79 111.09L85.79 111.15L85.79 111.21L85.79 111.27L85.79 111.33L85.79 111.39L85.79 111.45L85.79 111.52L85.79 111.57L85.79 111.63L85.79 111.69L85.79 111.75L85.79 111.81L85.79 111.87L85.79 111.93L85.79 111.99L85.79 112.05L85.79 112.1L85.79 112.16L85.79 112.22L85.79 112.28L85.79 112.33L85.79 112.39L85.79 112.45L85.79 112.5L85.79 112.56L85.79 112.61L85.79 112.67L85.79 112.72L85.79 112.78L85.79 112.83L85.79 112.88L85.79 112.94L85.79 112.99L85.79 113.04L85.79 113.1L85.79 113.15L85.79 113.2L85.79 113.25L85.79 113.31L85.79 113.36L85.79 113.41L85.79 113.46L85.79 113.51L85.79 113.56L85.79 113.61L85.79 113.66L85.79 113.71L85.79 113.76L85.79 113.8L85.79 113.85L85.79 113.9L85.79 113.95L85.79 114L85.79 114.04L85.79 114.09L85.79 114.13L85.79 114.18L85.79 114.23L85.79 114.27L85.79 114.32L85.79 114.36L85.79 114.41L85.79 114.45L85.79 114.49L85.79 114.54L85.79 114.58L85.79 114.62L85.79 114.66L85.79 114.7L85.79 114.75L85.79 114.79L85.79 114.83L85.79 114.87L85.79 114.91L85.79 114.95L85.79 114.99L85.79 115.03L85.79 115.07L85.79 115.11L85.79 115.14L85.79 115.18L85.79 115.22L85.79 115.26L85.79 115.29L85.79 115.33L85.79 115.37L85.79 115.4L85.79 115.44L85.79 115.47L85.79 115.51L85.79 115.54L85.79 115.58L85.79 115.61L85.79 115.64L85.79 115.68L85.79 115.71L85.79 115.74L85.79 115.77L85.79 115.8L85.79 115.83L85.79 115.86L85.79 115.89L85.79 115.92L85.79 115.95L85.79 115.98L85.79 116.01L85.79 116.04L85.79 116.07L85.79 116.1L85.79 116.12L85.79 116.15L85.79 116.18L85.79 116.2L85.79 116.23L85.79 116.25L85.79 116.28L85.79 116.3L85.79 116.33L85.79 116.35L85.79 116.37L85.79 116.39L85.79 116.42L85.79 116.44L85.79 116.46L85.79 116.48L85.79 116.5L85.79 116.52L85.79 116.54L85.79 116.56L85.79 116.58L85.79 116.6L85.79 116.62L85.79 116.64L85.79 116.65L85.79 116.67L85.79 116.69L85.79 116.7L85.79 116.72L85.79 116.73L85.79 116.75L85.79 116.76L85.79 116.78L85.79 116.79L85.79 116.8L85.79 116.82L85.79 116.83L85.79 116.84L85.79 116.85L85.79 116.86L85.79 116.87L85.79 116.88L85.79 116.89L85.79 116.9L85.79 116.91L85.79 116.92L85.79 116.93L85.79 116.94L85.79 116.96L85.79 116.97L85.79 116.98L85.79 116.99L85.79 117C85.79 121.3 82.3 124.8 78 124.8C73.69 124.8 70.2 121.3 70.2 117L70.2 116.99L70.2 116.98L70.2 116.97L70.2 116.96L70.2 116.94L70.2 116.93L70.2 116.92L70.2 116.91L70.2 116.9L70.2 116.89L70.2 116.88L70.2 116.87L70.2 116.86L70.2 116.85L70.2 116.84L70.2 116.83L70.2 116.82L70.2 116.8L70.2 116.79L70.2 116.78L70.2 116.76L70.2 116.75L70.2 116.73L70.2 116.72L70.2 116.7L70.2 116.69L70.2 116.67L70.2 116.65L70.2 116.64L70.2 116.62L70.2 116.6L70.2 116.58L70.2 116.56L70.2 116.54L70.2 116.52L70.2 116.5L70.2 116.48L70.2 116.46L70.2 116.44L70.2 116.42L70.2 116.39L70.2 116.37L70.2 116.35L70.2 116.33L70.2 116.3L70.2 116.28L70.2 116.25L70.2 116.23L70.2 116.2L70.2 116.18L70.2 116.15L70.2 116.12L70.2 116.1L70.2 116.07L70.2 116.04L70.2 116.01L70.2 115.98L70.2 115.95L70.2 115.92L70.2 115.89L70.2 115.86L70.2 115.83L70.2 115.8L70.2 115.77L70.2 115.74L70.2 115.71L70.2 115.68L70.2 115.64L70.2 115.61L70.2 115.58L70.2 115.54L70.2 115.51L70.2 115.47L70.2 115.44L70.2 115.4L70.2 115.37L70.2 115.33L70.2 115.29L70.2 115.26L70.2 115.22L70.2 115.18L70.2 115.14L70.2 115.11L70.2 115.07L70.2 115.03L70.2 114.99L70.2 114.95L70.2 114.91L70.2 114.87L70.2 114.83L70.2 114.79L70.2 114.75L70.2 114.7L70.2 114.66L70.2 114.62L70.2 114.58L70.2 114.54L70.2 114.49L70.2 114.45L70.2 114.41L70.2 114.36L70.2 114.32L70.2 114.27L70.2 114.23L70.2 114.18L70.2 114.13L70.2 114.09L70.2 114.04L70.2 114L70.2 113.95L70.2 113.9L70.2 113.85L70.2 113.8L70.2 113.76L70.2 113.71L70.2 113.66L70.2 113.61L70.2 113.56L70.2 113.51L70.2 113.46L70.2 113.41L70.2 113.36L70.2 113.31L70.2 113.25L70.2 113.2L70.2 113.15L70.2 113.1L70.2 113.04L70.2 112.99L70.2 112.94L70.2 112.88L70.2 112.83L70.2 112.78L70.2 112.72L70.2 112.67L70.2 112.61L70.2 112.56L70.2 112.5L70.2 112.45L70.2 112.39L70.2 112.33L70.2 112.28L70.2 112.22L70.2 112.16L70.2 112.1L70.2 112.05L70.2 111.99L70.2 111.93L70.2 111.87L70.2 111.81L70.2 111.75L70.2 111.69L70.2 111.63L70.2 111.57L70.2 111.52L70.2 111.45L70.2 111.39L70.2 111.33L70.2 111.27L70.2 111.21L70.2 111.15L70.2 111.09L70.2 111.02L70.2 110.96L70.2 110.9L70.2 110.84L70.2 110.77L70.2 110.71L70.2 110.64L70.2 110.58L70.2 110.52L70.2 110.45L70.2 110.39L70.2 110.32L70.2 110.26L70.2 110.19L70.2 110.13L70.2 110.06L70.2 109.99L70.2 109.93L70.2 109.86L70.2 109.79L70.2 109.73L70.2 109.66L70.2 109.59L70.2 109.52L70.2 109.46L70.2 109.39L70.2 109.32L70.2 109.25L70.2 109.18L70.2 109.11L70.2 109.04L70.2 108.97L70.2 108.9L70.2 108.84L70.2 108.77L70.2 108.69L70.2 108.62L70.2 108.55L70.2 108.48L70.2 108.41L70.2 108.34L70.2 108.27L70.2 108.2L70.2 108.12L70.2 108.05L70.2 107.98L70.2 107.91L70.2 107.84L70.2 107.76L70.2 107.69L70.2 107.61L70.2 107.54L70.2 107.47L70.2 107.39L70.2 107.32L70.2 107.25L70.2 107.17L70.2 107.1L70.2 107.02L70.2 106.95L70.2 106.87L70.2 106.8L70.2 106.72L70.2 106.65L70.2 106.57L70.2 106.49L70.2 106.42L70.2 106.34L70.2 106.27L70.2 106.19L70.2 106.11L70.2 106.03L70.2 105.96L70.2 105.88L70.2 105.8L70.2 105.72L70.2 105.65L70.2 105.57L70.2 105.49L70.2 105.41L70.2 105.33L70.2 105.26L70.2 105.18L70.2 105.1L70.2 105.02L70.2 104.94L70.2 104.86L70.2 104.78L70.2 104.7L70.2 104.62L70.2 104.54L70.2 104.46L70.2 104.38L70.2 104.3L70.2 104.22L70.2 104.14L70.2 104.06L70.2 103.98L70.2 103.9L70.2 103.82L70.2 103.73L70.2 103.65L70.2 103.57L70.2 103.49L70.2 103.41L70.2 103.33L70.2 103.25L70.2 103.16L70.2 103.08L70.2 103L70.2 102.92L70.2 102.83L70.2 102.75L70.2 102.67L70.2 102.59L70.2 102.5L70.2 102.42L70.2 102.34L70.2 102.25L70.2 102.17L70.2 102.09L70.2 102L70.2 101.92L70.2 101.83L70.2 101.75L70.2 101.67L70.2 101.58L70.2 101.5L70.2 101.41L70.2 101.33L70.2 101.24L70.2 101.16L70.2 101.08L70.2 100.99L70.2 100.91L70.2 100.82L70.2 100.74L70.2 100.65L70.2 100.57L70.2 100.48L70.2 100.39L70.2 100.31L70.2 100.22L70.2 100.14L70.2 100.05L70.2 99.97L70.2 99.88L70.2 99.79L70.2 99.71L70.2 99.62L70.2 99.54L70.2 99.45L70.2 99.36L70.2 99.28L70.2 99.19L70.2 99.1L70.2 99.02L70.2 98.93L70.2 98.85L70.2 98.76L70.2 98.67L70.2 98.58L70.2 98.5L70.2 98.41L70.2 98.33L70.2 98.24L70.2 98.15L70.2 98.07L70.2 97.98L70.2 97.89L70.2 97.8L70.2 97.72L70.2 97.63L70.2 97.54L70.2 97.45L70.2 97.37L70.2 97.28L70.2 97.19L70.2 97.1L70.2 97.02L70.2 96.93L70.2 96.84L70.2 96.75L70.2 96.67L70.2 96.58L70.2 96.49L70.2 96.4L70.2 96.32L70.2 96.23L70.2 96.14L70.2 96.05L70.2 95.97L70.2 95.88L70.2 95.79L70.2 95.7L70.2 95.61L70.2 95.53L70.2 95.44L70.2 95.35L70.2 95.26L70.2 95.17L70.2 95.09L70.2 95L70.2 94.91L70.2 94.83L70.2 94.74L70.2 94.65L70.2 94.56L70.2 94.47L70.2 94.39L70.2 94.3L70.2 94.21L70.2 94.12L70.2 94.03L70.2 93.95L70.2 93.86L70.2 93.77L70.2 93.68L70.2 93.59L70.2 93.51L70.2 93.42L70.2 93.33L70.2 93.25L70.2 93.16L70.2 93.07L70.2 92.98L70.2 92.9L70.2 92.81L70.2 92.72L70.2 92.63L70.2 92.54L70.2 92.46L70.2 92.37L70.2 92.28L70.2 92.2L70.2 92.11L70.2 92.02L70.2 91.93L70.2 91.85L70.2 91.76L70.2 91.67L70.2 91.58L70.2 91.5L70.2 91.41L70.2 91.33L70.2 91.24L70.2 91.15L70.2 91.07L70.2 90.98L70.2 90.89L70.2 90.81L70.2 90.72L70.2 90.63L70.2 90.55L70.2 90.46L70.2 90.37L70.2 90.29L70.2 90.2L70.2 90.12L70.2 90.03L70.2 89.94L70.2 89.86L70.2 89.77L70.2 89.69L70.2 89.6L70.2 89.52L70.2 89.43L70.2 89.34L70.2 89.26L70.2 89.17L70.2 89.09L70.2 89L70.2 88.92L70.2 88.83L70.2 88.75L70.2 88.67L70.2 88.58L70.2 88.5L70.2 88.41L70.2 88.33L70.2 88.25L70.2 88.16L70.2 88.08L70.2 87.99L70.2 87.91L70.2 87.83L70.2 87.74L70.2 87.66L70.2 87.58L70.2 87.49L70.2 87.41L70.2 87.33L70.2 87.24L70.2 87.16L70.2 87.08L70.2 86.99L70.2 86.91L70.2 86.83L70.2 86.75L70.2 86.66L70.2 86.58L70.2 86.5L70.2 86.42L70.2 86.34L70.2 86.26L70.2 86.17L70.2 86.09L70.2 86.01L70.2 85.93L70.2 85.85L70.2 85.77L70.2 85.69L70.2 85.61L70.2 85.53L70.2 85.45L70.2 85.37L70.2 85.29L70.2 85.21L70.2 85.13L70.2 85.05L70.2 84.97L70.2 84.89L70.2 84.81L70.2 84.73L70.2 84.65L70.2 84.58L70.2 84.5L70.2 84.42L70.2 84.34L70.2 84.26L70.2 84.18L70.2 84.11L70.2 84.03L70.2 83.95L70.2 83.87L70.2 83.8L70.2 83.72L70.2 83.64L70.2 83.57L70.2 83.54L70.2 83.5L70.2 83.48L70.2 83.44L70.2 83.41L70.2 83.38L70.2 83.35L70.2 83.32L70.2 83.29L70.2 83.26L70.2 83.23L70.2 83.19L70.2 83.16L70.2 83.13L70.2 83.1L70.2 83.07L70.2 83.04L70.2 83L70.2 82.97L70.2 82.94L70.2 82.91L70.2 82.88L70.2 82.85L70.2 82.81L70.2 82.78L70.2 82.75L70.2 82.72L70.2 82.68L70.2 82.65L70.2 82.62L70.2 82.59L70.2 82.56L70.2 82.52L70.2 82.49L70.2 82.46L70.2 82.42L70.2 82.39L70.2 82.36L70.2 82.33L70.2 82.29L70.2 82.26L70.2 82.23L70.2 82.2L70.2 82.16L70.2 82.13L70.2 82.1L70.2 82.06L70.2 82.03L70.2 82L70.2 81.96L70.2 81.93L70.2 81.9L70.2 81.86L70.2 81.83L70.2 81.8L70.2 81.76L70.2 81.73L70.2 81.7L70.2 81.66L70.2 81.63L70.2 81.59L70.2 81.56L70.2 81.53L70.2 81.49L70.2 81.46L70.2 81.42L70.2 81.39L70.2 81.36L70.2 81.32L70.2 81.29L70.2 81.25L70.2 81.22L70.2 81.19L70.2 81.15L70.2 81.12L70.2 81.08L70.2 81.05L70.2 81.01L70.2 80.98L70.2 80.95L70.2 80.91L70.2 80.88L70.2 80.84L70.2 80.81L70.2 80.77L70.2 80.74L70.2 80.71L70.2 80.67L70.2 80.64L70.2 80.6L70.2 80.57L70.2 80.53L70.2 80.5L70.2 80.46L70.2 80.43L70.2 80.39L70.2 80.36L70.2 80.32L70.2 80.29L70.2 80.25L70.2 80.22L70.2 80.18L70.2 80.15L70.2 80.11L70.2 80.08L70.2 80.05L70.2 80.01L70.2 79.98L70.2 79.94L70.2 79.91L70.2 79.87L70.2 79.83L70.2 79.8L70.2 79.77L70.2 79.73L70.2 79.7L70.2 79.66L70.2 79.63L70.2 79.59L70.2 79.56L70.2 79.52L70.2 79.49L70.2 79.45L70.2 79.41L70.2 79.38L70.2 79.34L70.2 79.31L70.2 79.27L70.2 79.24L70.2 79.2L70.2 79.17L70.2 79.13L70.2 79.1L70.2 79.06L70.2 79.03L70.2 78.99L70.2 78.96L70.2 78.92L70.2 78.89L70.2 78.85L70.2 78.82L70.2 78.78L70.2 78.75L70.2 78.71L70.2 78.68L70.2 78.64L70.2 78.61L70.2 78.57L70.2 78.54L70.2 78.5L70.2 78.47L70.2 78.43L70.2 78.4L70.2 78.36L70.2 78.33L70.2 78.29L70.2 78.26L70.2 78.22L70.2 78.19L70.2 78.15L70.2 78.12L70.2 78.08L70.2 78.05L70.2 78.01L70.2 77.98L70.2 77.94L70.2 77.91L70.2 77.87L70.2 77.84L70.2 77.8L70.2 77.77L70.2 77.73L70.2 77.7L70.2 77.66L70.2 77.63L70.2 77.59L70.2 77.56L70.2 77.52L70.2 77.49L70.2 77.45L70.2 77.42L70.2 77.39L70.2 77.35L70.2 77.32L70.2 77.28L70.2 77.25L70.2 77.21L70.2 77.18L70.2 77.14L70.2 77.11L70.2 77.08L70.2 77.04L70.2 77.01L70.2 76.97L70.2 76.94L70.2 76.9L70.2 76.87L70.2 76.83L70.2 76.8L70.2 76.77L70.2 76.73L70.2 76.7L70.2 76.66L70.2 76.63L70.2 76.6L70.2 76.56L70.2 76.53L70.2 76.5L70.2 76.46L70.2 76.43L70.2 76.4L70.2 76.36L70.2 76.33L70.2 76.29L70.2 76.26L70.2 76.23L70.2 76.19L70.2 76.16L70.2 76.13L70.2 76.09L70.2 76.06L70.2 76.03L70.2 75.99L70.2 75.96L70.2 75.92L70.2 75.89L70.2 75.86L70.2 75.83L70.2 75.79L70.2 75.76L70.2 75.73L70.2 75.7L70.2 75.66L70.2 75.63L70.2 75.6L70.2 75.57L70.2 75.53L70.2 75.5L70.2 75.47L70.2 75.43L70.2 75.4L70.2 75.37L70.2 75.34L70.2 75.31L70.2 75.27L70.2 75.24L70.2 75.21L70.2 75.18L70.2 75.15L70.2 75.11L70.2 75.08L70.2 75.05L70.2 75.02L70.2 74.99L70.2 74.95L70.2 74.92L70.2 74.89L70.2 74.86L70.2 74.83L70.2 74.8L70.2 74.77L70.2 74.74L70.2 74.7L70.2 74.67L70.2 74.64L70.2 74.61L70.2 74.58L70.2 74.55L70.2 74.52L70.2 74.49L70.2 74.46L70.2 74.43L70.2 74.4L70.2 74.36L70.2 74.33L70.2 74.31L70.2 74.27L70.2 74.24L70.2 74.21L70.2 74.18L70.2 74.16L70.2 74.12L70.2 74.09L70.2 74.07L70.2 74.04L70.2 74.01L70.2 73.98L70.2 73.95L70.2 73.92L70.2 73.89L70.2 73.86L70.2 73.83L70.2 73.8L70.2 73.77L70.2 73.74L70.2 73.71L70.2 73.69L70.2 73.66L70.2 73.63L70.2 73.6L70.2 73.57L70.2 73.54L70.2 73.51L70.2 73.49L70.2 73.46L70.2 73.43L70.2 73.4L70.2 73.38L70.2 73.35L70.2 73.32L70.2 73.29L70.2 73.26L70.2 73.24L70.2 73.21L70.2 73.18L70.2 73.16L70.2 73.13L70.2 73.1L70.2 73.08L70.2 73.05L70.2 73.02L70.2 73L70.2 72.97L70.2 72.94L70.2 72.92L70.2 72.89L70.2 72.86L70.2 72.84L70.2 72.81L70.2 72.79L70.2 72.76L70.2 72.74L70.2 72.71L70.2 72.68L70.2 72.66L70.2 72.63L70.2 72.61L70.2 72.58L70.2 72.56L70.2 72.53L70.2 72.51L70.2 72.49L70.2 72.46L70.2 72.44L70.2 72.41L70.2 72.39L70.2 72.36L70.2 72.34L70.2 72.32L70.2 72.29L70.2 72.27L70.2 72.25L70.2 72.22L70.2 72.2L70.2 72.17L70.2 72.15L70.2 72.13L70.2 72.1L70.2 72.08L70.2 72.06L70.2 72.04L70.2 72.01L70.2 71.99L70.2 71.97L70.2 71.95L70.2 71.93L70.2 71.9L70.2 71.88L70.2 71.86L70.2 71.84L70.2 71.82L70.2 71.8L70.2 71.78L70.2 71.75L70.2 71.73L70.2 71.71L70.2 71.69L70.2 71.67L70.2 71.65L70.2 71.63L70.2 71.61L70.2 71.59L70.2 71.57L70.2 71.55L70.2 71.53L70.2 71.51L70.2 71.49L70.2 71.47L70.2 71.45L70.2 71.43L70.2 71.41L70.2 71.4L70.2 71.38L70.2 71.36L70.2 71.34L70.2 71.32L70.2 71.3L70.2 71.28L70.2 71.27L70.2 71.25L70.2 71.23L70.2 71.21L70.2 71.2L70.2 71.18L70.2 71.16L70.2 71.14L70.2 71.13L70.2 71.11L70.2 71.09L70.2 71.08L70.2 71.06L70.2 71.05L70.2 71.03L70.2 71.01L70.2 71L70.2 70.98L70.2 70.97L70.2 70.95L70.2 70.93L70.2 70.92L70.2 70.91L70.2 70.89L70.2 70.88L70.2 70.86L70.2 70.85L70.2 70.83L70.2 70.82L70.2 70.8L70.2 70.79L70.2 70.78L70.2 70.76L70.2 70.75L70.2 70.74L70.2 70.72L70.2 70.71L70.2 70.7L70.2 70.68L70.2 70.67L70.2 70.66L70.2 70.65L70.2 70.64L70.2 70.62L70.2 70.61L70.2 70.6L70.2 70.59L70.2 70.58L70.2 70.57L70.2 70.56L70.2 70.54L70.2 70.53L70.2 70.52L70.2 70.51L70.2 70.5L70.2 70.49L70.2 70.48L70.2 70.47L70.2 70.46L70.2 70.45L70.2 70.44L70.2 70.43L70.2 70.43L70.2 70.42L70.2 70.41L70.2 70.4L70.2 70.39L70.2 70.38L70.2 70.38L70.2 70.37L70.2 70.35L70.2 70.34L70.2 70.33L70.2 70.31L70.2 70.3L70.2 70.29L70.2 70.28L70.2 70.27L70.2 70.26L70.2 70.25L70.2 70.24L70.2 70.23L70.2 70.22L70.2 70.21L70.2 70.2C70.2 65.89 73.69 62.4 78 62.4Z"
      fill-opacity="1.000000" fill-rule="evenodd" />
  </symbol>

  <symbol viewBox="0 0 156 156" id="instagram-icon">

    <path fill-rule="evenodd" clip-rule="evenodd"
      d="M45.7833 0.957284C33.0858 1.53019 22.0803 4.63456 13.1937 13.4837C4.27592 22.3793 1.2101 33.4284 0.635766 45.9937C0.278744 53.8365 -1.80893 113.086 4.24488 128.625C8.32733 139.107 16.3678 147.167 26.9465 151.263C31.8827 153.183 37.5175 154.483 45.7833 154.862C114.898 157.99 140.518 156.287 151.321 128.625C153.238 123.701 154.558 118.071 154.923 109.826C158.081 40.5342 154.411 25.5149 142.365 13.4837C132.811 3.95323 121.572 -2.53437 45.7833 0.957284ZM46.4196 140.926C38.8523 140.586 34.7467 139.325 32.0069 138.264C25.1149 135.585 19.9381 130.43 17.276 123.578C12.6658 111.772 14.1948 55.6959 14.6062 46.6222C15.0098 37.7342 16.8103 29.6113 23.0815 23.3403C30.8428 15.5982 40.8703 11.8039 109.146 14.8853C118.056 15.2878 126.198 17.0847 132.485 23.3403C140.246 31.0823 144.096 41.187 140.96 109.201C140.619 116.749 139.354 120.845 138.29 123.578C131.266 141.579 115.107 144.077 46.4196 140.926ZM109.899 36.5789C109.899 41.7042 114.067 45.8719 119.213 45.8719C124.359 45.8719 128.534 41.7042 128.534 36.5789C128.534 31.4537 124.359 27.2898 119.213 27.2898C114.067 27.2898 109.899 31.4537 109.899 36.5789ZM37.9288 77.9058C37.9288 99.8623 55.7721 117.664 77.7831 117.664C99.7942 117.664 117.637 99.8623 117.637 77.9058C117.637 55.9494 99.7942 38.1595 77.7831 38.1595C55.7721 38.1595 37.9288 55.9494 37.9288 77.9058ZM51.9147 77.9058C51.9147 63.6605 63.4946 52.1027 77.7831 52.1027C92.0717 52.1027 103.652 63.6605 103.652 77.9058C103.652 92.159 92.0717 103.72 77.7831 103.72C63.4946 103.72 51.9147 92.159 51.9147 77.9058Z" />

  </symbol>

  <symbol viewBox="0 0 156 156" id="facebook-icon">
    <path
      d="M0 31.19C0 13.96 13.96 0 31.2 0L124.8 0C142.03 0 156 13.96 156 31.19L156 124.8C156 142.03 142.03 156 124.8 156L31.2 156C13.96 156 0 142.03 0 124.8L0 31.19ZM31.2 15.59C22.58 15.59 15.6 22.58 15.6 31.19L15.6 124.8C15.6 133.41 22.58 140.39 31.2 140.39L78 140.39L78 85.8L70.2 85.8C65.89 85.8 62.39 82.3 62.39 78C62.39 73.69 65.89 70.19 70.2 70.19L78 70.19L78 58.5C78 43.42 90.22 31.19 105.3 31.19L109.98 31.19C114.28 31.19 117.78 34.69 117.78 39C117.78 43.3 114.28 46.8 109.98 46.8L105.3 46.8C98.83 46.8 93.6 52.03 93.6 58.5L93.6 70.19L109.98 70.19C114.28 70.19 117.78 73.69 117.78 78C117.78 82.3 114.28 85.8 109.98 85.8L93.6 85.8L93.6 140.39L124.8 140.39C133.41 140.39 140.39 133.41 140.39 124.8L140.39 31.19C140.39 22.58 133.41 15.59 124.8 15.59L31.2 15.59Z"
      fill-opacity="1.000000" fill-rule="evenodd" />
  </symbol>

  <symbol viewBox="0 0 33 18" id="burger-icon">
    <line x1="0" x2="33" y1="2" y2="2" stroke="#000" stroke-width="3" />
    <line x1="0" x2="33" y1="9" y2="9" stroke="#000" stroke-width="3" />
    <line x1="0" x2="33" y1="16" y2="16" stroke="#000" stroke-width="3" />
  </symbol>

  <symbol viewBox="0 0 25 22" id="cross-icon">
    <line x1="0" x2="25" y1="0" y2="22" stroke="#000" stroke-width="3" />
    <line x1="0" x2="25" y1="22" y2="0" stroke="#000" stroke-width="3" />
    </symbol>
</svg>